<?xml version="1.0" encoding="utf-8"?>
<!-- Generator: Adobe Illustrator 19.0.0, SVG Export Plug-In . SVG Version: 6.00 Build 0) -->
<svg version="1.1" id="Capa1" xmlns="http://www.w3.org/2000/svg" xmlns:xlink="http://www.w3.org/1999/xlink" x="0px" y="0px"
viewBox="0 0 758.6 180.3" style="enable-background:new 0 0 758.6 180.3;" xml:space="preserve">
<style type="text/css">
.st0{fill:#F8B71C;}
.st1{fill:#FFFFFF;}
</style>
<g id="XMLID_6">
<path id="XMLID117" class="st0" d="M66.5,103.1c1.9,1,1.9,2.4,1.9,3.5v5c0,0.9-0.7,1.7-1.5,1.7c-0.5,0-0.9-0.4-1.1-0.4L2.7,79.8
C0.9,79,0,78,0,76.6v-5c0-1.1,0.5-2.6,2-3.2L65.8,35c0.4-0.2,0.9-0.4,1.3-0.4c0.7,0,1.3,0.5,1.3,1.5V41c0,1-0.5,2.6-2,3.2
L10.1,73.9L66.5,103.1z"/>
<path id="XMLID116" class="st0" d="M748.7,73.7l-56.6-29.4c-1.5-0.7-2-2.2-2-3.2v-4.8c0-1,0.7-1.5,1.3-1.5c0.5,0,0.9,0.2,1.3,0.4
l63.8,33.3c1.5,0.7,2,2,2,3.2v5c0,1.3-0.9,2.4-2.7,3.2L692.8,113c-0.5,0-0.7,0.4-1.1,0.4c-1,0-1.5-0.9-1.5-1.7v-5
c0-1.1,0-2.6,1.8-3.5L748.7,73.7z"/>
<g id="XMLID76">
<path id="XMLID114" class="st1" d="M92,1.7h7.6c0.9,0,1.5,0.5,1.5,1.4v90.3c0,7.5,1.7,10.1,8,10.1h1.9c1.5,0,1.5,1,1.5,2.1v6.1
c0,1-0.7,1.5-1.5,1.7c-1.7,0.2-3.3,0.2-4.2,0.2c-13.7,0-16.3-7.3-16.3-19.1V3.3C90.6,2.5,90.9,1.7,92,1.7"/>
<path id="XMLID111" class="st1" d="M222.2,113.1c-9,0-16.5-3.5-20.3-8.2l-0.4,0.2v5.7c0,1-0.4,1.4-1.5,1.4h-6.7
c-1,0-1.5-0.2-1.5-1.2V3.3c0-1,0.5-1.5,1.5-1.5h7.8c1,0,1.2,0.5,1.2,1.4v40.2l0.5,0.2c3.8-4.2,11.5-7.8,20.5-7.8
c19.9,0,27.2,14.2,27.2,28.8v20.8C250.5,101.5,240.6,113.1,222.2,113.1 M239.9,64.3c0-10.6-5.4-19.6-18.7-19.6
c-11.1,0-18.9,8.8-18.9,19.5v21.2c0,10.6,7.8,18.9,18.7,18.9c13,0,18.9-8,18.9-19.1V64.3z"/>
<path id="XMLID108" class="st1" d="M291.4,113.3c-18.7,0-29.5-10.5-29.5-28.5v-21c0-17,10.7-28.3,29.3-28.3
c18.4,0,29.3,10.6,29.3,28.3v20.8C320.6,102.9,309.5,113.3,291.4,113.3 M310.2,64.1c0-11.1-6.3-19.3-18.7-19.3
c-11.3,0-18.9,8-18.9,19.1v21c0,11.5,5.9,19.5,18.7,19.5c12.8,0,18.7-7.8,18.9-19.6V64.1z"/>
<path id="XMLID107" class="st1" d="M431,18.8c0-0.7,0.4-1.4,1.4-1.7l7.3-1.7c1.2-0.4,1.7,0.5,1.7,1.4v18.7h19.1
c0.9,0,1.4,0.4,1.4,1.4V43c0,1-0.4,1.5-1.4,1.5h-19.1v46c0,8.6,2.6,13,10.3,13c3.6,0,8-0.5,10.6-1.2c1.9-0.4,2.5,0.5,2.6,1.5
l1,5.4c0.2,1.4,0,1.7-1.4,2.3c-3.5,1.4-10.3,1.9-14.4,1.9c-14.9,0-19.1-8.8-19.1-20.8V18.8z"/>
<path id="XMLID98" class="st1" d="M502.8,113.3c-18.7,0-29.5-10.5-29.5-28.5v-21c0-17,10.7-28.3,29.3-28.3
c18.4,0,29.3,10.6,29.3,28.3v20.8C531.9,102.9,520.8,113.3,502.8,113.3 M521.6,64.1c0-11.1-6.3-19.3-18.7-19.3
c-11.3,0-18.9,8-18.9,19.1v21c0,11.5,5.9,19.5,18.7,19.5s18.7-7.8,18.9-19.6V64.1z"/>
<path id="XMLID93" class="st1" d="M594.8,20.7c-3.8,0-6.9-2.9-6.9-7.1c0-3.8,3.1-6.7,6.9-6.7c4,0,7.1,2.9,7.1,6.7
S598.7,20.7,594.8,20.7 M589.3,36.8c0-1,0.5-1.4,1.4-1.4h7.8c1,0,1.5,0.5,1.5,1.4V111c0,0.9-0.4,1.2-1.4,1.2h-7.8
c-0.9,0-1.5-0.4-1.5-1.2V36.8z"/>
<path id="XMLID88" class="st1" d="M153.5,35.4h-13.6c-0.7,0-1.1,0.5-1.1,1.1v6.9c0,0.7,0.5,1.1,1.1,1.1h12.5
c13,0,17.2,6.7,17.2,16.1v7.5l-0.7,0.4c-4.2-4.7-11.5-7.3-17.7-7.3c-17.7,0-27.2,11.7-27.2,26.2c0,15.3,9.2,25.8,25.8,25.8
c7.6,0,15.3-2.5,19.7-8.5l0.9,0.2v6.1c0,0.5,0.2,1.2,1.2,1.2h7.1c0.9,0,1.4-0.6,1.4-1.5V62.2C180.2,45.5,173.2,35.4,153.5,35.4
M151.4,104.5c-12.1,0-17.6-7.6-17.6-17.4c0-9.6,6.5-17.4,17.7-17.4c11.3,0,17.4,7.8,17.4,17.2
C168.9,96.6,161.7,104.5,151.4,104.5"/>
<path id="XMLID82" class="st1" d="M392.8,35.4h-13.6c-0.7,0-1.1,0.5-1.1,1.1v6.9c0,0.7,0.5,1.1,1.1,1.1h12.5
c13,0,17.2,6.7,17.2,16.1v7.5l-0.7,0.4c-4.2-4.7-11.5-7.3-17.7-7.3c-17.7,0-27.2,11.7-27.2,26.2c0,15.3,9.2,25.8,25.8,25.8
c7.6,0,15.3-2.5,19.7-8.5l0.9,0.2v6.1c0,0.5,0.2,1.2,1.2,1.2h7.1c0.9,0,1.4-0.6,1.4-1.5V62.2C419.4,45.5,412.5,35.4,392.8,35.4
M390.7,104.5c-12.1,0-17.6-7.6-17.6-17.4c0-9.6,6.5-17.4,17.7-17.4c11.3,0,17.4,7.8,17.4,17.2
C408.2,96.6,401.1,104.5,390.7,104.5"/>
<path id="XMLID79" class="st1" d="M641.3,35.4h-13.6c-0.7,0-1.1,0.5-1.1,1.1v6.9c0,0.7,0.5,1.1,1.1,1.1h12.5
c13,0,17.2,6.7,17.2,16.1v7.5l-0.7,0.4c-4.2-4.7-11.5-7.3-17.7-7.3c-17.7,0-27.2,11.7-27.2,26.2c0,15.3,9.2,25.8,25.8,25.8
c7.6,0,15.3-2.5,19.7-8.5l0.9,0.2v6.1c0,0.5,0.2,1.2,1.2,1.2h7.1c0.9,0,1.4-0.6,1.4-1.5V62.2C667.9,45.5,661,35.4,641.3,35.4
M639.2,104.5c-12.1,0-17.6-7.6-17.6-17.4c0-9.6,6.5-17.4,17.7-17.4c11.3,0,17.4,7.8,17.4,17.2
C656.6,96.6,649.5,104.5,639.2,104.5"/>
<path id="XMLID78" class="st1" d="M360.8,44.7c-12.5,0-18,11-18,22.8v43.4c0,1-0.4,1.4-1.4,1.4h-7.8c-0.9,0-1.5-0.4-1.5-1.2V38
c0-1,0.5-1.4,1.4-1.4h6.7c1,0,1.4,0.6,1.4,1.4v9.6h0.5c4.2-6.7,12.3-12.1,21-12.1h2.5c0.7,0,1.1,0.5,1.1,1.1v7
c0,0.7-0.5,1.1-1.1,1.1L360.8,44.7z"/>
<path id="XMLID77" class="st1" d="M572.2,44.7c-12.5,0-18,11-18,22.8v43.4c0,1-0.4,1.4-1.4,1.4h-7.8c-0.9,0-1.5-0.4-1.5-1.2V38
c0-1,0.5-1.4,1.4-1.4h6.7c1,0,1.4,0.6,1.4,1.4v9.6h0.5c4.2-6.7,12.3-12.1,21-12.1h2.5c0.7,0,1.1,0.5,1.1,1.1v7
c0,0.7-0.5,1.1-1.1,1.1L572.2,44.7z"/>
</g>
<g id="XMLID9">
<path id="XMLID75" class="st1" d="M152,145.2c5.7,0,8.5,3.3,8.5,3.3l-1.6,2.4c0,0-2.6-2.8-6.8-2.8c-5.1,0-9.1,3.8-9.1,9.4
c0,5.5,4.1,9.4,9.2,9.4c4.7,0,7.5-3.3,7.5-3.3l1.4,2.5c0,0-3.1,3.7-9.1,3.7c-6.9,0-12.2-4.9-12.2-12.2
C139.6,150.3,145,145.2,152,145.2z"/>
<path id="XMLID71" class="st1" d="M177.4,145.2c6.8,0,12.3,5.2,12.3,12.1c0,7-5.5,12.3-12.3,12.3s-12.3-5.3-12.3-12.3
C165.1,150.4,170.6,145.2,177.4,145.2z M177.4,166.8c5,0,9.1-4.1,9.1-9.5c0-5.3-4.1-9.2-9.1-9.2s-9.1,4-9.1,9.2
C168.3,162.8,172.4,166.8,177.4,166.8z M179.1,136.5h3.7l-4,5.5H176L179.1,136.5z"/>
<path id="XMLID67" class="st1" d="M204.6,145.2c5.7,0,7.6,4.4,7.6,4.4h0.1c0,0-0.1-0.8-0.1-1.8v-11.4h3.1V169h-3v-2.5
c0-1,0.1-1.7,0.1-1.7h-0.1c0,0-1.9,4.7-8.1,4.7c-6.3,0-10.2-5-10.2-12.2C194.1,150,198.5,145.2,204.6,145.2z M204.7,166.8
c3.9,0,7.6-2.8,7.6-9.4c0-4.7-2.4-9.4-7.4-9.4c-4.2,0-7.5,3.5-7.5,9.4C197.4,163.2,200.4,166.8,204.7,166.8z"/>
<path id="XMLID64" class="st1" d="M223,136.5h3.3v4H223V136.5z M223.1,145.8h3.1v23.3h-3.1V145.8z"/>
<path id="XMLID60" class="st1" d="M241.8,176.1c4.6,0,8.2-2.2,8.2-7.3v-2.2c0-0.9,0.1-1.7,0.1-1.7H250c-1.4,2.6-3.8,4.1-7.4,4.1
c-6.3,0-10.4-4.9-10.4-12c0-7,3.9-11.8,10.2-11.8c6.2,0,7.7,3.9,7.7,3.9h0.1c0,0,0-0.3,0-0.8v-2.6h3v22.8
c0,7.4-5.5,10.3-11.2,10.3c-2.7,0-5.4-0.7-7.7-1.9l1.2-2.6C235.6,174.4,238.4,176.1,241.8,176.1z M250.1,157.1
c0-6.8-3.2-8.9-7.4-8.9c-4.6,0-7.2,3.3-7.2,8.8c0,5.5,3,9.2,7.7,9.2C246.9,166.2,250.1,163.9,250.1,157.1z"/>
<path id="XMLID57" class="st1" d="M271.5,145.2c6.8,0,12.3,5.2,12.3,12.1c0,7-5.5,12.3-12.3,12.3s-12.3-5.3-12.3-12.3
C259.1,150.4,264.6,145.2,271.5,145.2z M271.5,166.8c5,0,9.1-4.1,9.1-9.5c0-5.3-4.1-9.2-9.1-9.2s-9.1,4-9.1,9.2
C262.3,162.8,266.4,166.8,271.5,166.8z"/>
<path id="XMLID54" class="st1" d="M311.1,145.2c5.7,0,7.7,4.5,7.7,4.5h0.1c0,0,0-0.8,0-1.8v-2.2h3v32.7h-3.1v-11.2
c0-1.2,0.1-2.1,0.1-2.1h-0.1c0,0-2,4.6-8,4.6c-6.3,0-10.2-5-10.2-12.2C300.7,150,305.1,145.2,311.1,145.2z M311.3,166.8
c3.9,0,7.6-2.8,7.6-9.4c0-4.7-2.4-9.4-7.4-9.4c-4.2,0-7.5,3.5-7.5,9.4C303.9,163.2,307,166.8,311.3,166.8z"/>
<path id="XMLID53" class="st1" d="M329.3,145.8h3.1v14c0,3.7,0.6,6.9,5,6.9c5.3,0,8.6-4.7,8.6-9.8v-11.2h3.1v23.3h-3v-3.5
c0-1,0.1-1.9,0.1-1.9h-0.1c-0.9,2.3-4,5.9-9.1,5.9c-5.5,0-7.8-2.9-7.8-9L329.3,145.8L329.3,145.8z"/>
<path id="XMLID42" class="st1" d="M366.8,145.2c6.5,0,9.8,4.9,9.8,10.8c0,0.6-0.1,1.6-0.1,1.6h-17.9c0.1,6,4.3,9.2,9,9.2
c4.3,0,7.1-2.8,7.1-2.8l1.4,2.4c0,0-3.4,3.2-8.6,3.2c-6.9,0-12.2-5-12.2-12.2C355.3,149.9,360.5,145.2,366.8,145.2z M373.3,155.1
c-0.2-4.8-3.1-7.1-6.6-7.1c-3.9,0-7.3,2.5-8.1,7.1H373.3z"/>
<path id="XMLID40" class="st1" d="M395.9,148.7h-3v-2.7h3.1v-6.7h3.1v6.7h5.9v2.7h-5.9v11.6c0,5.5,3.5,6.2,5.2,6.2
c0.7,0,1-0.1,1-0.1v2.8c0,0-0.5,0.1-1.3,0.1c-2.7,0-8.2-0.9-8.2-8.7L395.9,148.7L395.9,148.7z"/>
<path id="XMLID39" class="st1" d="M410.6,145.8h3.1v4.2c0,1-0.1,1.9-0.1,1.9h0.1c1.1-3.5,3.7-6.3,7.4-6.3c0.7,0,1.2,0.1,1.2,0.1
v3.1c0,0-0.6-0.1-1.1-0.1c-3.3,0-5.8,2.6-6.7,6.1c-0.5,1.5-0.7,3-0.7,4.6v9.9h-3.2V145.8z"/>
<path id="XMLID24" class="st1" d="M439.6,154.7h1.3v-0.6c0-4.5-2.5-6.1-5.8-6.1c-3.9,0-6.5,2.2-6.5,2.2l-1.5-2.4
c0,0,3-2.7,8.4-2.7c5.6,0,8.7,3.1,8.7,8.9v15H441v-2.6c0-1.1,0.1-2,0.1-2H441c0,0-2,5-7.8,5c-3.9,0-8-2.3-8-6.9
C425.2,154.9,435.5,154.7,439.6,154.7z M433.7,167c4.5,0,7.1-4.7,7.1-8.7v-1h-1.3c-3.7,0-11,0.1-11,5.3
C428.5,164.8,430.3,167,433.7,167z"/>
<path id="XMLID23" class="st1" d="M451.3,145.8h3.1v3.5c0,1-0.1,1.9-0.1,1.9h0.1c0.9-2.2,3.8-5.9,9.3-5.9c5.8,0,7.8,3.3,7.8,9
v14.9h-3.1v-14c0-3.7-0.6-6.9-5-6.9c-4,0-7.4,2.8-8.5,6.5c-0.3,0.9-0.4,2.1-0.4,3.1v11.2h-3.1L451.3,145.8L451.3,145.8z"/>
<path id="XMLID22" class="st1" d="M478.7,164c0,0,2.6,2.8,6.9,2.8c2.5,0,4.7-1.2,4.7-3.7c0-5.1-12.6-3.9-12.6-11.5
c0-4.2,3.8-6.5,8-6.5c4.9,0,7.2,2.6,7.2,2.6l-1.4,2.4c0,0-2-2.2-5.9-2.2c-2.4,0-4.7,1-4.7,3.6c0,5.1,12.6,3.8,12.6,11.5
c0,3.8-3.3,6.5-8,6.5c-5.7,0-8.6-3.4-8.6-3.4L478.7,164z"/>
<path id="XMLID19" class="st1" d="M500.5,148.7h-2.9v-2.7h2.9v-1.1c0-7.7,5.4-8.7,8.1-8.7c0.9,0,1.4,0.1,1.4,0.1v2.8
c0,0-0.5-0.1-1.1-0.1c-1.8,0-5.2,0.7-5.2,5.9v1.1h6v2.7h-6v20.4h-3.1V148.7z"/>
<path id="XMLID16" class="st1" d="M524.7,145.2c6.8,0,12.3,5.2,12.3,12.1c0,7-5.5,12.3-12.3,12.3s-12.3-5.3-12.3-12.3
C512.4,150.4,517.9,145.2,524.7,145.2z M524.7,166.8c5,0,9.1-4.1,9.1-9.5c0-5.3-4.1-9.2-9.1-9.2c-5,0-9.1,4-9.1,9.2
C515.6,162.8,519.7,166.8,524.7,166.8z"/>
<path id="XMLID15" class="st1" d="M543,145.8h3.1v4.2c0,1-0.1,1.9-0.1,1.9h0.1c1.1-3.5,3.7-6.3,7.4-6.3c0.7,0,1.2,0.1,1.2,0.1
v3.1c0,0-0.6-0.1-1.1-0.1c-3.3,0-5.8,2.6-6.7,6.1c-0.5,1.5-0.7,3-0.7,4.6v9.9h-3.1L543,145.8L543,145.8z"/>
<path id="XMLID13" class="st1" d="M559.5,145.8h3.1v3.5c0,1-0.1,1.9-0.1,1.9h0.1c1.1-3.1,4.8-5.9,8.4-5.9c4.4,0,6.5,2,7.2,5.9
h0.1c1.2-3.1,4.7-5.9,8.6-5.9c5.7,0,7.8,3.3,7.8,9v14.9h-3.1v-14c0-3.8-0.8-6.9-5-6.9c-3.6,0-6.5,3.1-7.4,6.5
c-0.3,1-0.4,2.2-0.4,3.4v11h-3.1v-14c0-3.5-0.5-6.9-4.9-6.9c-3.8,0-6.6,3.3-7.7,6.8c-0.2,0.9-0.3,2.1-0.3,3.1v11h-3.1v-23.4H559.5
z"/>
<path id="XMLID10" class="st1" d="M614.5,154.7h1.3v-0.6c0-4.5-2.5-6.1-5.8-6.1c-3.9,0-6.5,2.2-6.5,2.2l-1.5-2.4
c0,0,3-2.7,8.4-2.7c5.6,0,8.7,3.1,8.7,8.9v15h-3v-2.6c0-1.1,0.1-2,0.1-2H616c0,0-2,5-7.8,5c-3.9,0-8-2.3-8-6.9
C600.2,154.9,610.4,154.7,614.5,154.7z M608.6,167c4.5,0,7.1-4.7,7.1-8.7v-1h-1.3c-3.7,0-11,0.1-11,5.3
C603.4,164.8,605.1,167,608.6,167z"/>
</g>
</g>
</svg>